<svg xmlns="http://www.w3.org/2000/svg" width="28" height="28" viewBox="0 0 43.16 26.573">
    <defs>
        <style>
            .cls-1{fill:#b2bcc4}
        </style>
    </defs>
    <g id="towed-car" transform="translate(0 -117.596)">
        <path id="Path_59" d="M35.818 117.6a.86.86 0 0 0-.839.839v1.058a.86.86 0 0 0 .839.839h.557l-10.289 10.36-.219-.79a1.962 1.962 0 0 0-2.348-1.453l-6.044.282-4.1-3.815a2.724 2.724 0 0 0-2.687-.79L0 127v1.9h.056l4.365-1.178 1.178 4.2L0 133.428v8.9a3.11 3.11 0 0 0 3.639 1.735 3.139 3.139 0 0 0 2.243-3.583l10.8-2.905a3.1 3.1 0 0 0 3.752 1.96 3.139 3.139 0 0 0 2.243-3.582l3.082-.839a1.284 1.284 0 0 0 1.058-1.622l-.282-1.058L38.681 120.3h1.735v7.278h2.743V117.6zM3.244 142.723a1.655 1.655 0 1 1-.889-3.188.6.6 0 0 1 .395-.113 1.594 1.594 0 0 1 1.685 1.234 1.739 1.739 0 0 1-1.191 2.067zm4.2-11.368L6.333 127.1l4.027-1.058h.614a2.4 2.4 0 0 1 1.4.67l2.687 2.638zm12.588 6.777a1.691 1.691 0 0 1-2.066-1.178 1.754 1.754 0 0 1 1.234-2.066.359.359 0 0 0 .339 0 1.594 1.594 0 0 1 1.685 1.234 1.647 1.647 0 0 1-1.189 2.01zm13.156-7.832v9c0 .839.219 1.509 1.566 1.509h1.9a3.61 3.61 0 0 0 3.583 3.357 3.408 3.408 0 0 0 2.906-1.566v-13.756c.056-.056-8.4-.056-8.4-.056-1.386 0-1.555.612-1.555 1.512zm7.052 8.286a1.892 1.892 0 0 1 1.9 1.9 1.94 1.94 0 0 1-1.9 1.961 1.984 1.984 0 0 1-1.961-1.961 2.024 2.024 0 0 1 1.961-1.903z" class="cls-1" data-name="Path 59"/>
    </g>
</svg>
