<svg xmlns="http://www.w3.org/2000/svg" id="file" width="28" height="28" viewBox="0 0 23.828 27.248">
    <defs>
        <style>
            .cls-1{fill:#b2bcc4}
        </style>
    </defs>
    <path id="Path_60" d="M84.3 305.385a.8.8 0 0 0-.777-.035l-3.023 1.515-2.475-1.485a.8.8 0 0 0-.793-.016l-2.769 1.51-3.047-1.523a.8.8 0 0 0-.8.05l-2.18 1.453-3.006-1.5a.8.8 0 0 0-1.155.714v7.7a2.508 2.508 0 0 0 2.508 2.508h15.39a2.507 2.507 0 0 0 2.508-2.508v-7.7a.8.8 0 0 0-.381-.683zm-4.695 6.18H69.347a.8.8 0 0 1 0-1.6h10.261a.8.8 0 0 1 0 1.6zm0 0" class="cls-1" data-name="Path 60" transform="translate(-60.853 -289.02)"/>
    <path id="Path_61" d="M5.986 0v5.073a.913.913 0 0 1-.912.912H0v-.056a.8.8 0 0 1 .234-.565l5.13-5.13A.8.8 0 0 1 5.929 0zm0 0" class="cls-1" data-name="Path 61"/>
    <path id="Path_62" d="M20.408 2.508A2.507 2.507 0 0 0 17.9 0H7.582v5.073a2.511 2.511 0 0 1-2.508 2.509H0v7.752a.8.8 0 0 0 1.155.714l3.028-1.514 2.475 1.485a.8.8 0 0 0 .793.016l2.769-1.51 3.047 1.524a.8.8 0 0 0 .8-.05l2.18-1.453 3.006 1.5a.8.8 0 0 0 1.155-.714zM15.334 11H5.074a.8.8 0 0 1 0-1.6h10.26a.8.8 0 0 1 0 1.6zm0-3.42H10.2a.8.8 0 0 1 0-1.6h5.13a.8.8 0 0 1 0 1.6zm0 0" class="cls-1" data-name="Path 62"/>
</svg>
