<svg xmlns="http://www.w3.org/2000/svg" width="28" height="28" viewBox="0 0 26.956 22.916">
    <defs>
        <style>
            .cls-1{fill:#b2bcc4}
        </style>
    </defs>
    <g id="danger" transform="translate(0 -38.365)">
        <g id="Group_88" data-name="Group 88" transform="translate(0 38.365)">
            <path id="Path_50" d="M26.719 58.777L14.892 39.164a1.652 1.652 0 0 0-2.829 0L.237 58.777a1.652 1.652 0 0 0 1.414 2.5H25.3a1.652 1.652 0 0 0 1.414-2.5zM13.487 45.149a1.119 1.119 0 0 1 1.254 1.062c0 2.072-.244 5.051-.244 7.123 0 .54-.592.766-1.01.766-.557 0-1.027-.226-1.027-.766 0-2.072-.244-5.05-.244-7.123 0-.678.557-1.062 1.271-1.062zm.013 12.836a1.341 1.341 0 1 1 1.324-1.341 1.361 1.361 0 0 1-1.324 1.341z" class="cls-1" data-name="Path 50" transform="translate(0 -38.365)"/>
        </g>
    </g>
</svg>
