<svg xmlns="http://www.w3.org/2000/svg" width="17.644" height="16.873" viewBox="0 0 17.644 16.873">
    <defs>
        <style>
            .cls-1{fill:url(#linear-gradient)}
        </style>
        <linearGradient id="linear-gradient" x1=".5" x2=".5" y2="1" gradientUnits="objectBoundingBox">
            <stop offset="0" stop-color="#3d4b64"/>
            <stop offset="1" stop-color="#3d4b64"/>
        </linearGradient>
    </defs>
    <path id="star" d="M9.674 1.576l1.99 4.032a.95.95 0 0 0 .715.52l4.45.647a.95.95 0 0 1 .527 1.62l-3.22 3.139a.95.95 0 0 0-.273.841l.76 4.432a.95.95 0 0 1-1.379 1l-3.98-2.092a.951.951 0 0 0-.884 0L4.4 17.808a.95.95 0 0 1-1.379-1l.76-4.432a.95.95 0 0 0-.273-.841L.289 8.4a.95.95 0 0 1 .527-1.62l4.45-.647a.95.95 0 0 0 .715-.52l1.99-4.032a.95.95 0 0 1 1.703-.005z" class="cls-1" transform="translate(0 -1.047)"/>
</svg>
