<svg xmlns="http://www.w3.org/2000/svg" width="28" height="28" viewBox="0 0 28 22.4">
    <defs>
        <style>
            .cls-1{fill:#b2bcc4}
        </style>
    </defs>
    <g id="baseline-local_activity-24px" transform="translate(0 -5.8)">
        <path id="Shape" d="M25.2 22.4H2.8A2.8 2.8 0 0 1 0 19.6V14a2.8 2.8 0 0 0 2.8-2.8A2.8 2.8 0 0 0 .014 8.4V2.8A2.8 2.8 0 0 1 2.8 0h22.4A2.8 2.8 0 0 1 28 2.8v5.6a2.8 2.8 0 1 0 0 5.6v5.6a2.8 2.8 0 0 1-2.8 2.8zM14 14.7l5.012 3.22-1.526-5.754L22.092 8.4l-5.937-.35L14 2.52l-2.17 5.516-5.937.35 4.607 3.766-1.512 5.768L14 14.7z" class="cls-1" transform="translate(0 5.8)"/>
    </g>
</svg>
